<?xml version="1.0" encoding="utf-8"?>
<!-- Generator: Adobe Illustrator 25.4.1, SVG Export Plug-In . SVG Version: 6.00 Build 0)  -->
<svg version="1.1" id="Layer_1" xmlns="http://www.w3.org/2000/svg" xmlns:xlink="http://www.w3.org/1999/xlink" x="0px" y="0px"
	 viewBox="0 0 74.11 74.02" style="enable-background:new 0 0 74.11 74.02;" xml:space="preserve">
<style type="text/css">
	.st0{fill:#FFFFFF;}
	.st1{fill:#191919;}
	.st2{fill:#1AAA4B;}
</style>
<circle class="st0" cx="37.08" cy="37.03" r="36.34"/>
<polygon class="st1" points="27.27,12.03 20.74,12.03 20.74,49.85 27.27,40.89 "/>
<polygon class="st1" points="46.59,12.03 53.12,12.03 53.12,49.85 46.59,40.89 "/>
<path class="st2" d="M45.22,55.82c-1.45-3.47-4.11-8.63-5.89-11.53l-3.39-5.24l-0.97,3.23c-1.77,5.89-4.35,9.84-9.35,14.44
	c-4.84,4.35-7.5,5.56-4.19,1.85c2.58-2.82,8.31-11.61,9.92-15.32c2.34-5.16,2.1-8.31-0.97-11.05c-2.18-2.02-2.34-2.42-1.13-2.9
	c0.89-0.32,2.1,0.16,3.47,1.37C35.14,33,44.01,43.4,52.55,54.21l6.29,7.82h-5.56H47.8L45.22,55.82z"/>
</svg>
