<?xml version="1.0" encoding="utf-8"?>
<!-- Generator: Adobe Illustrator 25.4.1, SVG Export Plug-In . SVG Version: 6.00 Build 0)  -->
<svg version="1.1" id="Layer_1" xmlns="http://www.w3.org/2000/svg" xmlns:xlink="http://www.w3.org/1999/xlink" x="0px" y="0px"
	 viewBox="0 0 70 100" style="enable-background:new 0 0 70 100;" xml:space="preserve">
<style type="text/css">
	.st0{fill:#191919;}
	.st1{fill:#1AAA4B;}
</style>
<polygon class="st0" points="20.93,19 12.83,19 12.83,65.89 20.93,54.79 "/>
<polygon class="st0" points="44.88,19 52.98,19 52.98,65.89 44.88,54.79 "/>
<path class="st1" d="M43.18,73.3c-1.8-4.3-5.1-10.7-7.3-14.3l-4.2-6.5l-1.2,4c-2.2,7.3-5.4,12.2-11.6,17.9c-6,5.4-9.3,6.9-5.2,2.3
	c3.2-3.5,10.3-14.4,12.3-19c2.9-6.4,2.6-10.3-1.2-13.7c-2.7-2.5-2.9-3-1.4-3.6c1.1-0.4,2.6,0.2,4.3,1.7c3,2.9,14,15.8,24.6,29.2
	l7.8,9.7h-6.9h-6.8L43.18,73.3z"/>
</svg>
